<svg width="25" height="25" viewBox="0 0 25 25" fill="none" xmlns="http://www.w3.org/2000/svg">
<path fill-rule="evenodd" clip-rule="evenodd" d="M11.7636 16.3633C11.959 16.5586 12.2239 16.6683 12.5001 16.6683C12.7763 16.6683 13.0412 16.5586 13.2365 16.3633L19.1293 10.4706C19.2287 10.3745 19.3081 10.2596 19.3627 10.1325C19.4173 10.0054 19.446 9.86872 19.4472 9.73041C19.4484 9.59209 19.4221 9.45493 19.3697 9.32691C19.3173 9.19889 19.24 9.08259 19.1422 8.98478C19.0444 8.88698 18.9281 8.80963 18.8 8.75726C18.672 8.70488 18.5349 8.67852 18.3965 8.67973C18.2582 8.68093 18.1215 8.70966 17.9945 8.76426C17.8674 8.81885 17.7524 8.89821 17.6563 8.9977L12.5001 14.1539L7.34384 8.99769C7.14738 8.80795 6.88425 8.70295 6.61113 8.70533C6.33801 8.7077 6.07675 8.81725 5.88361 9.01038C5.69048 9.20352 5.58093 9.46478 5.57855 9.7379C5.57618 10.011 5.68117 10.2742 5.87092 10.4706L11.7636 16.3633Z" fill="white"/>
</svg>
