<svg width="24" height="25" viewBox="0 0 24 25" fill="none" xmlns="http://www.w3.org/2000/svg">
<g clip-path="url(#clip0_9_486)">
<path fill-rule="evenodd" clip-rule="evenodd" d="M12.7064 16.2071C12.5188 16.3946 12.2645 16.4999 11.9994 16.4999C11.7342 16.4999 11.4799 16.3946 11.2924 16.2071L5.63537 10.5501C5.53986 10.4579 5.46367 10.3475 5.41126 10.2255C5.35886 10.1035 5.33127 9.97228 5.33012 9.8395C5.32896 9.70672 5.35426 9.57504 5.40454 9.45215C5.45483 9.32925 5.52908 9.2176 5.62297 9.1237C5.71686 9.02981 5.82852 8.95556 5.95141 8.90528C6.07431 8.855 6.20599 8.82969 6.33877 8.83085C6.47155 8.832 6.60277 8.85959 6.72477 8.912C6.84677 8.96441 6.95712 9.04059 7.04937 9.1361L11.9994 14.0861L16.9494 9.1361C17.138 8.95394 17.3906 8.85315 17.6528 8.85542C17.915 8.8577 18.1658 8.96287 18.3512 9.14828C18.5366 9.33369 18.6418 9.5845 18.644 9.8467C18.6463 10.1089 18.5455 10.3615 18.3634 10.5501L12.7064 16.2071Z" fill="#606060"/>
</g>
<defs>
<clipPath id="clip0_9_486">
<rect width="24" height="24" fill="white" transform="translate(0 0.5)"/>
</clipPath>
</defs>
</svg>
