<svg width="15" height="16" viewBox="0 0 15 16" fill="none" xmlns="http://www.w3.org/2000/svg">
<g clip-path="url(#clip0_11_1939)">
<path fill-rule="evenodd" clip-rule="evenodd" d="M7.94221 10.3172C7.82501 10.4344 7.66606 10.5002 7.50034 10.5002C7.33461 10.5002 7.17567 10.4344 7.05846 10.3172L3.52284 6.78159C3.46314 6.72393 3.41553 6.65497 3.38277 6.57871C3.35002 6.50246 3.33278 6.42045 3.33205 6.33746C3.33133 6.25448 3.34715 6.17218 3.37857 6.09537C3.41 6.01856 3.45641 5.94877 3.51509 5.89009C3.57377 5.83141 3.64355 5.785 3.72037 5.75357C3.79718 5.72215 3.87948 5.70633 3.96246 5.70705C4.04545 5.70778 4.12746 5.72502 4.20371 5.75777C4.27997 5.79053 4.34893 5.83814 4.40659 5.89784L7.50034 8.99159L10.5941 5.89784C10.712 5.78399 10.8698 5.72099 11.0337 5.72241C11.1976 5.72384 11.3543 5.78957 11.4702 5.90545C11.5861 6.02133 11.6518 6.17809 11.6533 6.34196C11.6547 6.50583 11.5917 6.66371 11.4778 6.78159L7.94221 10.3172Z" fill="white"/>
</g>
<defs>
<clipPath id="clip0_11_1939">
<rect width="15" height="15" fill="white" transform="translate(0 0.5)"/>
</clipPath>
</defs>
</svg>
